<svg fill="currentColor" xmlns="http://www.w3.org/2000/svg" viewBox="0 0 24 24" class="h-6 group-hover:text-gray-500 text-gray-400 dark:text-gray-500 dark:group-hover:text-gray-600 mr-[13px] relative left-[3px] !text-primary !group-hover:text-primary" style="width: 24px; height: 24px"><path d="M9.75351 10.0095L10.5441 10.273L9.75351 10.0095ZM9.8626 9.74299L9.17479 9.2725L9.8626 9.74299ZM10.2595 9.50351L9.99595 8.71294L10.2595 9.50351ZM9.99299 9.6126L9.5225 8.92479L9.99299 9.6126ZM9.27789 15.484L9.54142 16.2746L9.27789 15.484ZM8.38263 15.6704L8.66253 14.8855L8.38263 15.6704ZM8.26596 14.4721L7.4754 14.2086L8.26596 14.4721ZM8.07962 15.3674L8.86454 15.0875L8.07962 15.3674ZM14.2465 13.4905L15.0371 13.754L14.2465 13.4905ZM14.1374 13.757L14.8252 14.2275L14.1374 13.757ZM13.7405 13.9965L13.477 13.2059L13.7405 13.9965ZM14.007 13.8874L14.4775 14.5752L14.007 13.8874ZM15.734 9.02789L14.9435 8.76437L15.734 9.02789ZM15.9204 8.13263L15.1355 8.41253L15.9204 8.13263ZM14.7221 8.01596L14.4586 7.2254L14.7221 8.01596ZM15.6174 7.82962L15.3375 8.61454L15.6174 7.82962ZM21.1667 11.75C21.1667 16.8126 17.0626 20.9167 12 20.9167V22.5833C17.9831 22.5833 22.8333 17.7331 22.8333 11.75H21.1667ZM12 20.9167C6.93739 20.9167 2.83333 16.8126 2.83333 11.75H1.16667C1.16667 17.7331 6.01692 22.5833 12 22.5833V20.9167ZM2.83333 11.75C2.83333 6.68739 6.93739 2.58333 12 2.58333V0.916667C6.01691 0.916667 1.16667 5.76691 1.16667 11.75H2.83333ZM12 2.58333C17.0626 2.58333 21.1667 6.68739 21.1667 11.75H22.8333C22.8333 5.76692 17.9831 0.916667 12 0.916667V2.58333ZM14.9435 8.76437L13.4559 13.227L15.0371 13.754L16.5246 9.29142L14.9435 8.76437ZM13.477 13.2059L9.01437 14.6935L9.54142 16.2746L14.004 14.7871L13.477 13.2059ZM9.05653 14.7356L10.5441 10.273L8.96294 9.74595L7.4754 14.2086L9.05653 14.7356ZM10.523 10.2941L14.9856 8.80653L14.4586 7.2254L9.99595 8.71294L10.523 10.2941ZM10.5441 10.273C10.5561 10.237 10.5647 10.2111 10.5723 10.1891C10.5799 10.1672 10.584 10.1562 10.586 10.1509C10.5879 10.1461 10.5859 10.152 10.5799 10.1637C10.5735 10.1766 10.5637 10.194 10.5504 10.2135L9.17479 9.2725C9.05392 9.44919 8.99404 9.65264 8.96294 9.74595L10.5441 10.273ZM9.99595 8.71294C9.90264 8.74404 9.69919 8.80392 9.5225 8.92479L10.4635 10.3004C10.444 10.3137 10.4266 10.3235 10.4137 10.3299C10.402 10.3359 10.3961 10.3379 10.4009 10.336C10.4062 10.334 10.4172 10.3299 10.4391 10.3223C10.4611 10.3147 10.487 10.3061 10.523 10.2941L9.99595 8.71294ZM10.5504 10.2135C10.5271 10.2476 10.4976 10.2771 10.4635 10.3004L9.5225 8.92479C9.38604 9.01813 9.26813 9.13604 9.17479 9.2725L10.5504 10.2135ZM9.01437 14.6935C8.89026 14.7348 8.79064 14.768 8.70457 14.7951C8.61794 14.8224 8.5591 14.839 8.51735 14.8488C8.47407 14.8589 8.47032 14.8566 8.49064 14.8559C8.51495 14.8549 8.57968 14.8559 8.66253 14.8855L8.10273 16.4553C8.42101 16.5688 8.72267 16.5126 8.8986 16.4712C9.08689 16.427 9.3129 16.3508 9.54142 16.2746L9.01437 14.6935ZM7.4754 14.2086C7.39922 14.4371 7.32301 14.6631 7.27876 14.8514C7.23742 15.0273 7.1812 15.329 7.2947 15.6473L8.86454 15.0875C8.89408 15.1703 8.89505 15.2351 8.89413 15.2594C8.89335 15.2797 8.89107 15.2759 8.90124 15.2327C8.91105 15.1909 8.92763 15.1321 8.95489 15.0454C8.98198 14.9594 9.01516 14.8597 9.05653 14.7356L7.4754 14.2086ZM8.66253 14.8855C8.75677 14.9191 8.83093 14.9932 8.86454 15.0875L7.2947 15.6473C7.42912 16.0242 7.72577 16.3209 8.10273 16.4553L8.66253 14.8855ZM13.4559 13.227C13.4439 13.263 13.4353 13.2889 13.4277 13.3109C13.4201 13.3328 13.416 13.3438 13.414 13.3491C13.4121 13.3539 13.4141 13.348 13.4201 13.3363C13.4265 13.3234 13.4363 13.306 13.4496 13.2865L14.8252 14.2275C14.9461 14.0508 15.006 13.8474 15.0371 13.754L13.4559 13.227ZM14.004 14.7871C14.0974 14.756 14.3008 14.6961 14.4775 14.5752L13.5365 13.1996C13.556 13.1863 13.5734 13.1765 13.5863 13.1701C13.598 13.1641 13.6039 13.1621 13.5991 13.164C13.5938 13.166 13.5828 13.1701 13.5609 13.1777C13.5389 13.1853 13.513 13.1939 13.477 13.2059L14.004 14.7871ZM13.4496 13.2865C13.4729 13.2524 13.5024 13.2229 13.5365 13.1996L14.4775 14.5752C14.614 14.4819 14.7319 14.364 14.8252 14.2275L13.4496 13.2865ZM16.5246 9.29142C16.6008 9.0629 16.677 8.83689 16.7212 8.6486C16.7626 8.47267 16.8188 8.17101 16.7053 7.85273L15.1355 8.41253C15.1059 8.32968 15.1049 8.26495 15.1059 8.24064C15.1066 8.22032 15.1089 8.22407 15.0988 8.26735C15.089 8.3091 15.0724 8.36794 15.0451 8.45457C15.018 8.54064 14.9848 8.64025 14.9435 8.76437L16.5246 9.29142ZM14.9856 8.80653C15.1097 8.76516 15.2094 8.73198 15.2954 8.70489C15.3821 8.67763 15.4409 8.66105 15.4827 8.65124C15.5259 8.64107 15.5297 8.64335 15.5094 8.64413C15.4851 8.64505 15.4203 8.64408 15.3375 8.61454L15.8973 7.0447C15.579 6.9312 15.2773 6.98742 15.1014 7.02876C14.9131 7.07301 14.6871 7.14922 14.4586 7.2254L14.9856 8.80653ZM16.7053 7.85273C16.5709 7.47577 16.2742 7.17912 15.8973 7.0447L15.3375 8.61454C15.2432 8.58093 15.1691 8.50677 15.1355 8.41253L16.7053 7.85273Z"></path></svg>